<svg width="20" height="20" viewBox="0 0 20 20" fill="none" xmlns="http://www.w3.org/2000/svg">
<path fill-rule="evenodd" clip-rule="evenodd" d="M9.66443 0.996172C9.87557 0.890599 10.1241 0.890599 10.3352 0.996172L17.0019 4.32951C17.256 4.45655 17.4165 4.71625 17.4165 5.00033C17.4165 5.2844 17.256 5.5441 17.0019 5.67115L10.3352 9.00448C10.1241 9.11005 9.87557 9.11005 9.66443 9.00448L2.99776 5.67115C2.74367 5.5441 2.58317 5.2844 2.58317 5.00033C2.58317 4.71625 2.74367 4.45655 2.99776 4.32951L9.66443 0.996172ZM5.01022 5.00033L9.99984 7.49513L14.9895 5.00033L9.99984 2.50552L5.01022 5.00033ZM2.66235 7.99825C2.84759 7.62777 3.2981 7.4776 3.66858 7.66284L9.99984 10.8285L16.3311 7.66284C16.7016 7.4776 17.1521 7.62777 17.3373 7.99825C17.5226 8.36873 17.3724 8.81924 17.0019 9.00448L10.3352 12.3378C10.1241 12.4434 9.87557 12.4434 9.66443 12.3378L2.99776 9.00448C2.62728 8.81924 2.47711 8.36873 2.66235 7.99825ZM2.66235 11.3316C2.84759 10.9611 3.2981 10.8109 3.66858 10.9962L9.99984 14.1618L16.3311 10.9962C16.7016 10.8109 17.1521 10.9611 17.3373 11.3316C17.5226 11.7021 17.3724 12.1526 17.0019 12.3378L10.3352 15.6711C10.1241 15.7767 9.87557 15.7767 9.66443 15.6711L2.99776 12.3378C2.62728 12.1526 2.47711 11.7021 2.66235 11.3316ZM2.66235 14.6649C2.84759 14.2944 3.2981 14.1443 3.66858 14.3295L9.99984 17.4951L16.3311 14.3295C16.7016 14.1443 17.1521 14.2944 17.3373 14.6649C17.5226 15.0354 17.3724 15.4859 17.0019 15.6711L10.3352 19.0045C10.1241 19.1101 9.87557 19.1101 9.66443 19.0045L2.99776 15.6711C2.62728 15.4859 2.47711 15.0354 2.66235 14.6649Z" fill="#4D48CE"/>
</svg>
