<svg width="24" height="24" viewBox="0 0 24 24" fill="none" xmlns="http://www.w3.org/2000/svg">
<path fill-rule="evenodd" clip-rule="evenodd" d="M6 4.75C5.66848 4.75 5.35054 4.8817 5.11612 5.11612C4.8817 5.35054 4.75 5.66848 4.75 6V18C4.75 18.3315 4.8817 18.6495 5.11612 18.8839C5.35054 19.1183 5.66848 19.25 6 19.25H18C18.3315 19.25 18.6495 19.1183 18.8839 18.8839C19.1183 18.6495 19.25 18.3315 19.25 18V12C19.25 11.5858 19.5858 11.25 20 11.25C20.4142 11.25 20.75 11.5858 20.75 12V18C20.75 18.7293 20.4603 19.4288 19.9445 19.9445C19.4288 20.4603 18.7293 20.75 18 20.75H6C5.27065 20.75 4.57118 20.4603 4.05546 19.9445C3.53973 19.4288 3.25 18.7293 3.25 18V6C3.25 5.27065 3.53973 4.57118 4.05546 4.05546C4.57118 3.53973 5.27065 3.25 6 3.25H15C15.4142 3.25 15.75 3.58579 15.75 4C15.75 4.41421 15.4142 4.75 15 4.75H6ZM19.4697 5.46967C19.7626 5.17678 20.2374 5.17678 20.5303 5.46967C20.8232 5.76256 20.8232 6.23744 20.5303 6.53033L12.5303 14.5303C12.2374 14.8232 11.7626 14.8232 11.4697 14.5303L8.46967 11.5303C8.17678 11.2374 8.17678 10.7626 8.46967 10.4697C8.76256 10.1768 9.23744 10.1768 9.53033 10.4697L12 12.9393L19.4697 5.46967Z" fill="#8C8E9C"/>
</svg>
