<svg width="20" height="20" viewBox="0 0 20 20" fill="none" xmlns="http://www.w3.org/2000/svg">
<path fill-rule="evenodd" clip-rule="evenodd" d="M5.00016 4.08301C4.4939 4.08301 4.0835 4.49341 4.0835 4.99967V10.083H5.8335C6.03241 10.083 6.22317 10.162 6.36383 10.3027L8.64416 12.583H11.3562L13.6365 10.3027C13.7772 10.162 13.9679 10.083 14.1668 10.083H15.9168V4.99967C15.9168 4.49341 15.5064 4.08301 15.0002 4.08301H5.00016ZM17.4168 4.99967C17.4168 3.66499 16.3349 2.58301 15.0002 2.58301H5.00016C3.66547 2.58301 2.5835 3.66499 2.5835 4.99967V14.9997C2.5835 16.3344 3.66547 17.4163 5.00016 17.4163H15.0002C16.3349 17.4163 17.4168 16.3344 17.4168 14.9997V4.99967ZM15.9168 11.583H14.4775L12.1972 13.8633C12.0565 14.004 11.8657 14.083 11.6668 14.083H8.3335C8.13458 14.083 7.94382 14.004 7.80317 13.8633L5.52284 11.583H4.0835V14.9997C4.0835 15.5059 4.4939 15.9163 5.00016 15.9163H15.0002C15.5064 15.9163 15.9168 15.5059 15.9168 14.9997V11.583Z" fill="#8C8E9C"/>
</svg>
