<?xml version="1.0" encoding="utf-8"?>
<!-- Generator: Adobe Illustrator 26.0.3, SVG Export Plug-In . SVG Version: 6.00 Build 0)  -->
<svg version="1.1" id="Слой_1" xmlns="http://www.w3.org/2000/svg" xmlns:xlink="http://www.w3.org/1999/xlink" x="0px" y="0px"
	 viewBox="0 0 24 24" style="enable-background:new 0 0 24 24;" xml:space="preserve">
<style type="text/css">
	.st0{fill-rule:evenodd;clip-rule:evenodd;fill:#8C8E9C;}
</style>
<path class="st0" d="M12,11.2c-0.4,0-0.8,0.3-0.8,0.8v0c0,0.4,0.3,0.8,0.8,0.8s0.8-0.3,0.8-0.8v0C12.8,11.6,12.4,11.2,12,11.2z
	 M12,11.2c-0.4,0-0.8,0.3-0.8,0.8v0c0,0.4,0.3,0.8,0.8,0.8s0.8-0.3,0.8-0.8v0C12.8,11.6,12.4,11.2,12,11.2z M12,11.2
	c-0.4,0-0.8,0.3-0.8,0.8v0c0,0.4,0.3,0.8,0.8,0.8s0.8-0.3,0.8-0.8v0C12.8,11.6,12.4,11.2,12,11.2z M12,11.2c-0.4,0-0.8,0.3-0.8,0.8
	v0c0,0.4,0.3,0.8,0.8,0.8s0.8-0.3,0.8-0.8v0C12.8,11.6,12.4,11.2,12,11.2z M19,6.2h-2.2V5c0-0.7-0.3-1.4-0.8-1.9
	c-0.5-0.5-1.2-0.8-1.9-0.8h-4c-0.7,0-1.4,0.3-1.9,0.8C7.5,3.6,7.2,4.3,7.2,5v1.2H5C3.5,6.2,2.2,7.5,2.2,9v9c0,1.5,1.2,2.8,2.8,2.8
	h14c1.5,0,2.8-1.2,2.8-2.8V9C21.8,7.5,20.5,6.2,19,6.2z M8.8,5c0-0.3,0.1-0.7,0.4-0.9C9.3,3.9,9.7,3.8,10,3.8h4
	c0.3,0,0.7,0.1,0.9,0.4c0.2,0.2,0.4,0.5,0.4,0.9v1.2H8.8V5z M20.2,18c0,0.7-0.6,1.2-1.2,1.2H5c-0.7,0-1.2-0.6-1.2-1.2v-3.8
	c2.6,1.1,5.4,1.7,8.2,1.7s5.7-0.6,8.2-1.7V18z M20.2,12.5c-2.6,1.2-5.4,1.9-8.2,1.9s-5.7-0.6-8.2-1.9V9c0-0.7,0.6-1.2,1.2-1.2h14
	c0.7,0,1.2,0.6,1.2,1.2V12.5z M12,11.2c-0.4,0-0.8,0.3-0.8,0.8v0c0,0.4,0.3,0.8,0.8,0.8s0.8-0.3,0.8-0.8v0
	C12.8,11.6,12.4,11.2,12,11.2z M12,11.2c-0.4,0-0.8,0.3-0.8,0.8v0c0,0.4,0.3,0.8,0.8,0.8s0.8-0.3,0.8-0.8v0
	C12.8,11.6,12.4,11.2,12,11.2z M12,11.2c-0.4,0-0.8,0.3-0.8,0.8v0c0,0.4,0.3,0.8,0.8,0.8s0.8-0.3,0.8-0.8v0
	C12.8,11.6,12.4,11.2,12,11.2z"/>
</svg>
