<svg width="20" height="20" viewBox="0 0 20 20" fill="none" xmlns="http://www.w3.org/2000/svg">
<path fill-rule="evenodd" clip-rule="evenodd" d="M1.97 1.96967C2.26289 1.67678 2.73776 1.67678 3.03066 1.96967L14.9309 13.8699C14.9746 13.9046 15.0151 13.9448 15.0511 13.9901L18.0307 16.9697C18.3235 17.2626 18.3235 17.7374 18.0307 18.0303C17.7378 18.3232 17.2629 18.3232 16.97 18.0303L14.3524 15.4128C13.0151 16.1905 11.5614 16.5833 10.0003 16.5833C6.30698 16.5833 3.31964 14.4036 1.01582 10.3721C0.884035 10.1415 0.884051 9.8584 1.01586 9.62781C2.01252 7.8842 3.1359 6.48462 4.39679 5.45712L1.97 3.03033C1.6771 2.73744 1.6771 2.26256 1.97 1.96967ZM5.46389 6.52422C4.42022 7.34553 3.44119 8.4956 2.53629 10.0001C4.63302 13.4881 7.12729 15.0833 10.0003 15.0833C11.1572 15.0833 12.2361 14.8262 13.2476 14.3079L11.0952 12.1556C10.7584 12.3271 10.3828 12.4188 9.9978 12.4186C9.35677 12.4184 8.74209 12.1636 8.28897 11.7101C7.83585 11.2567 7.58142 10.6418 7.58165 10.0008C7.58179 9.61635 7.67351 9.24138 7.84472 8.90506L5.46389 6.52422ZM9.09454 10.1549C9.1261 10.3411 9.21471 10.5144 9.35001 10.6498C9.48546 10.7854 9.65896 10.8742 9.84543 10.9058L9.09454 10.1549ZM9.99767 4.91666C9.32516 4.91428 8.65568 5.00694 8.0091 5.19191C7.61086 5.30583 7.19567 5.07535 7.08175 4.67711C6.96783 4.27887 7.19831 3.86368 7.59655 3.74976C8.37857 3.52605 9.18827 3.41391 10.0017 3.41667C13.6944 3.41719 16.6813 5.59689 18.9848 9.62788C19.1166 9.85849 19.1166 10.1416 18.9848 10.3722C18.3137 11.5462 17.5864 12.5634 16.7986 13.4157C16.5175 13.7199 16.0429 13.7386 15.7388 13.4574C15.4346 13.1763 15.4159 12.7018 15.6971 12.3976C16.3138 11.7303 16.9035 10.9326 17.4644 9.99993C15.3676 6.51195 12.8734 4.91667 10.0003 4.91667L9.99767 4.91666Z" fill="#8B8D9B"/>
</svg>
