<svg width="20" height="20" viewBox="0 0 20 20" fill="none" xmlns="http://www.w3.org/2000/svg">
<path fill-rule="evenodd" clip-rule="evenodd" d="M2.53575 10.0003C4.63249 13.4884 7.12678 15.0837 9.99984 15.0837C12.8729 15.0837 15.3672 13.4884 17.4639 10.0003C15.3672 6.5123 12.8729 4.91699 9.99984 4.91699C7.12678 4.91699 4.63249 6.5123 2.53575 10.0003ZM1.01533 9.62821C3.31916 5.59673 6.30649 3.41699 9.99984 3.41699C13.6932 3.41699 16.6805 5.59673 18.9843 9.62821C19.1161 9.85879 19.1161 10.1419 18.9843 10.3724C16.6805 14.4039 13.6932 16.5837 9.99984 16.5837C6.30649 16.5837 3.31916 14.4039 1.01533 10.3724C0.883562 10.1419 0.883562 9.85879 1.01533 9.62821ZM9.99984 9.08366C9.49358 9.08366 9.08317 9.49406 9.08317 10.0003C9.08317 10.5066 9.49358 10.917 9.99984 10.917C10.5061 10.917 10.9165 10.5066 10.9165 10.0003C10.9165 9.49406 10.5061 9.08366 9.99984 9.08366ZM7.58317 10.0003C7.58317 8.66564 8.66515 7.58366 9.99984 7.58366C11.3345 7.58366 12.4165 8.66564 12.4165 10.0003C12.4165 11.335 11.3345 12.417 9.99984 12.417C8.66515 12.417 7.58317 11.335 7.58317 10.0003Z" fill="#8C8E9C"/>
</svg>
