<svg width="18" height="18" viewBox="0 0 18 18" fill="none" xmlns="http://www.w3.org/2000/svg">
<g opacity="0.4">
<path fill-rule="evenodd" clip-rule="evenodd" d="M9 17.25C13.5563 17.25 17.25 13.5563 17.25 9C17.25 4.44365 13.5563 0.75 9 0.75C4.44365 0.75 0.75 4.44365 0.75 9C0.75 13.5563 4.44365 17.25 9 17.25ZM9.90684 4.065C9.73684 3.8695 9.51584 3.77175 9.24384 3.77175C8.98034 3.77175 8.74234 3.88225 8.52984 4.10325C8.32584 4.32425 8.22384 4.5835 8.22384 4.881C8.22384 5.1615 8.30884 5.39525 8.47884 5.58225C8.65734 5.76925 8.88684 5.86275 9.16734 5.86275C9.44784 5.86275 9.68159 5.76075 9.86859 5.55675C10.0641 5.34425 10.1618 5.085 10.1618 4.779C10.1618 4.49 10.0768 4.252 9.90684 4.065ZM9.70284 7.36725C9.52434 7.11225 9.22259 6.98475 8.79759 6.98475C8.44059 6.98475 8.12184 7.09525 7.84134 7.31625C7.56934 7.52875 7.34409 7.79225 7.16559 8.10675C6.99559 8.41275 6.88509 8.70175 6.83409 8.97375L7.52259 9.17775C7.70959 8.50625 7.91359 8.1705 8.13459 8.1705C8.27059 8.1705 8.33859 8.281 8.33859 8.502C8.33859 8.7825 8.27484 9.33925 8.14734 10.1722C7.99434 11.1412 7.91784 11.817 7.91784 12.1995C7.91784 12.684 8.00709 13.0452 8.18559 13.2832C8.37259 13.5212 8.69134 13.6402 9.14184 13.6402C9.49884 13.6402 9.81334 13.534 10.0853 13.3215C10.3573 13.1005 10.5783 12.837 10.7483 12.531C10.9183 12.225 11.0288 11.9317 11.0798 11.6512L10.3913 11.4473C10.2043 12.1187 9.99609 12.4545 9.76659 12.4545C9.63909 12.4545 9.57534 12.344 9.57534 12.123C9.57534 11.9785 9.60084 11.7192 9.65184 11.3452C9.70284 10.9627 9.73684 10.7162 9.75384 10.6057C9.77084 10.4612 9.81334 10.134 9.88134 9.624C9.94934 9.1055 9.98335 8.71875 9.98335 8.46375C9.98335 7.98775 9.88984 7.62225 9.70284 7.36725Z" fill="#0F111D"/>
</g>
</svg>
