<svg width="18" height="18" viewBox="0 0 18 18" fill="none" xmlns="http://www.w3.org/2000/svg">
<g clip-path="url(#clip0_1006_18730)">
<path fill-rule="evenodd" clip-rule="evenodd" d="M9 1.75C4.99594 1.75 1.75 4.99594 1.75 9C1.75 13.0041 4.99594 16.25 9 16.25C13.0041 16.25 16.25 13.0041 16.25 9C16.25 4.99594 13.0041 1.75 9 1.75ZM0.25 9C0.25 4.16751 4.16751 0.25 9 0.25C13.8325 0.25 17.75 4.16751 17.75 9C17.75 13.8325 13.8325 17.75 9 17.75C4.16751 17.75 0.25 13.8325 0.25 9ZM5.58333 7.22222C5.58333 6.80801 5.91912 6.47222 6.33333 6.47222H6.34222C6.75644 6.47222 7.09222 6.80801 7.09222 7.22222C7.09222 7.63644 6.75644 7.97222 6.34222 7.97222H6.33333C5.91912 7.97222 5.58333 7.63644 5.58333 7.22222ZM10.9167 7.22222C10.9167 6.80801 11.2525 6.47222 11.6667 6.47222H11.6756C12.0898 6.47222 12.4256 6.80801 12.4256 7.22222C12.4256 7.63644 12.0898 7.97222 11.6756 7.97222H11.6667C11.2525 7.97222 10.9167 7.63644 10.9167 7.22222ZM5.58333 11.6667C5.58333 11.2525 5.91912 10.9167 6.33333 10.9167H11.6667C12.0809 10.9167 12.4167 11.2525 12.4167 11.6667C12.4167 12.0809 12.0809 12.4167 11.6667 12.4167H6.33333C5.91912 12.4167 5.58333 12.0809 5.58333 11.6667Z" fill="#D3862C"/>
</g>
<defs>
<clipPath id="clip0_1006_18730">
<rect width="18" height="18" fill="white"/>
</clipPath>
</defs>
</svg>
