<svg width="20" height="20" viewBox="0 0 20 20" fill="none" xmlns="http://www.w3.org/2000/svg">
<path fill-rule="evenodd" clip-rule="evenodd" d="M4.72608 5.78674C3.80235 6.94149 3.25 8.40624 3.25 10C3.25 13.7279 6.27208 16.75 10 16.75C11.5938 16.75 13.0585 16.1976 14.2133 15.2739L4.72608 5.78674ZM5.78674 4.72608L15.2739 14.2133C16.1976 13.0585 16.75 11.5938 16.75 10C16.75 6.27208 13.7279 3.25 10 3.25C8.40624 3.25 6.94149 3.80235 5.78674 4.72608ZM1.75 10C1.75 5.44365 5.44365 1.75 10 1.75C14.5563 1.75 18.25 5.44365 18.25 10C18.25 14.5563 14.5563 18.25 10 18.25C5.44365 18.25 1.75 14.5563 1.75 10Z" fill="#8C8E9C"/>
</svg>
