<svg width="24" height="24" viewBox="0 0 24 24" fill="none" xmlns="http://www.w3.org/2000/svg">
<path fill-rule="evenodd" clip-rule="evenodd" d="M17.451 2.34429C17.8131 1.92731 18.4447 1.88287 18.8617 2.24502C20.1546 3.3679 21.1933 4.75344 21.9086 6.3093C22.1393 6.8111 21.9195 7.4049 21.4177 7.6356C20.9159 7.86629 20.3221 7.64652 20.0914 7.14473C19.4948 5.8471 18.6285 4.69152 17.5503 3.75501C17.1333 3.39286 17.0888 2.76126 17.451 2.34429ZM6.54673 2.34398C6.90905 2.76081 6.86486 3.39243 6.44803 3.75475C5.3704 4.69144 4.50474 5.847 3.9087 7.14446C3.67815 7.64633 3.08441 7.86627 2.58255 7.63572C2.08069 7.40516 1.86075 6.81143 2.0913 6.30957C2.80596 4.75391 3.84389 3.36838 5.13597 2.24528C5.5528 1.88297 6.18442 1.92716 6.54673 2.34398ZM12 4.00002C11.7348 4.00002 11.4804 4.10537 11.2929 4.29291C11.1054 4.48045 11 4.7348 11 5.00002C11 5.38671 10.7771 5.73874 10.4275 5.90404C9.44312 6.3695 8.60398 7.09404 8 8.00002C7.40018 8.89974 7.05474 9.94471 7 11.0244V14C7 14.0402 6.99758 14.0803 6.99275 14.1202C6.9125 14.7832 6.7004 15.4222 6.37021 16H17.6298C17.2996 15.4222 17.0875 14.7832 17.0072 14.1202C17.0024 14.0803 17 14.0402 17 14V11.0244C16.9453 9.94471 16.5998 8.89974 16 8.00002C15.396 7.09404 14.5569 6.3695 13.5725 5.90404C13.2229 5.73874 13 5.38671 13 5.00002C13 4.7348 12.8946 4.48045 12.7071 4.29291C12.5196 4.10537 12.2652 4.00002 12 4.00002ZM14 18H10C10 18.5304 10.2107 19.0392 10.5858 19.4142C10.9609 19.7893 11.4696 20 12 20C12.5304 20 13.0391 19.7893 13.4142 19.4142C13.7893 19.0392 14 18.5304 14 18ZM8 18C8 19.0609 8.42142 20.0783 9.17157 20.8284C9.92172 21.5786 10.9391 22 12 22C13.0609 22 14.0783 21.5786 14.8284 20.8284C15.5786 20.0783 16 19.0609 16 18H20C20.4542 18 20.8513 17.694 20.967 17.2548C21.0827 16.8156 20.8879 16.3536 20.4928 16.1298C20.084 15.8984 19.7354 15.5742 19.4749 15.1834C19.2247 14.8082 19.0625 14.3815 19 13.9354V11C19 10.9844 18.9996 10.9687 18.9989 10.9531C18.9308 9.50293 18.4694 8.09858 17.6641 6.89061C16.9636 5.83992 16.026 4.97225 14.93 4.35573C14.8079 3.80061 14.5295 3.28689 14.1213 2.87869C13.5587 2.31609 12.7956 2.00002 12 2.00002C11.2043 2.00002 10.4413 2.31609 9.87868 2.87869C9.47048 3.28689 9.19206 3.80061 9.06999 4.35573C7.97402 4.97225 7.03636 5.83992 6.3359 6.89061C5.53058 8.09858 5.06917 9.50293 5.0011 10.9531C5.00036 10.9687 5 10.9844 5 11V13.9354C4.93752 14.3815 4.77531 14.8082 4.52514 15.1834C4.2646 15.5742 3.91595 15.8984 3.50724 16.1298C3.11205 16.3536 2.91729 16.8156 3.033 17.2548C3.14871 17.694 3.54584 18 4 18H8Z" fill="#0F111D"/>
</svg>
