<svg width="24" height="24" viewBox="0 0 24 24" fill="none" xmlns="http://www.w3.org/2000/svg">
<path fill-rule="evenodd" clip-rule="evenodd" d="M8.05854 17.3027C7.63543 17.7326 7.28636 18.1517 7.08052 18.5718C8.40008 19.6368 10.154 20.25 12 20.25C13.85 20.25 15.6075 19.6342 16.928 18.5649C16.7293 18.1202 16.4002 17.7218 15.9641 17.4103C15.3728 16.9879 14.7224 16.75 14 16.75H10C9.30494 16.75 8.66226 16.9703 8.05854 17.3027ZM7.2279 16.0488C7.99915 15.6081 8.92834 15.25 10 15.25H14C15.0776 15.25 16.0272 15.6121 16.8359 16.1897C17.6673 16.7835 18.2805 17.6295 18.5276 18.6181C18.5937 18.8826 18.5111 19.1622 18.3117 19.3483C16.6632 20.887 14.3763 21.75 12 21.75C9.62372 21.75 7.33684 20.887 5.68826 19.3483C5.48892 19.1622 5.40626 18.8826 5.47239 18.6181C5.72675 17.6007 6.4651 16.7742 7.06967 16.1697C7.11681 16.1225 7.17002 16.0819 7.2279 16.0488Z" fill="#8C8E9C"/>
<path fill-rule="evenodd" clip-rule="evenodd" d="M2.25 12C2.25 6.58579 6.58579 2.25 12 2.25C17.4196 2.25 21.75 6.59122 21.75 12.1C21.75 15.0377 20.3393 17.7422 18.2831 19.4737C18.0825 19.6426 17.8082 19.6945 17.5597 19.6105C17.3113 19.5264 17.1248 19.3187 17.0679 19.0627C16.9107 18.3553 16.5238 17.8101 15.9641 17.4103C15.3728 16.9879 14.7224 16.75 14 16.75H10C9.30494 16.75 8.66226 16.9703 8.05854 17.3027C7.49796 17.8723 7.06735 18.4229 6.92761 18.9819C6.86566 19.2297 6.68187 19.4289 6.43986 19.5106C6.19786 19.5923 5.93093 19.5452 5.73148 19.3857C3.5483 17.6391 2.25 14.921 2.25 12ZM12 3.75C7.41421 3.75 3.75 7.41421 3.75 12C3.75 14.1259 4.56022 16.1069 5.93687 17.5447C6.26749 17.0058 6.69436 16.545 7.06967 16.1697C7.11681 16.1225 7.17002 16.0819 7.2279 16.0488C7.99915 15.6081 8.92833 15.25 10 15.25H14C15.0776 15.25 16.0272 15.6121 16.8359 16.1897C17.3515 16.558 17.7815 17.022 18.093 17.5781C19.4041 16.1347 20.25 14.1766 20.25 12.1C20.25 7.40879 16.5804 3.75 12 3.75ZM12 7.75C10.7142 7.75 9.75 8.71421 9.75 10C9.75 11.2858 10.7142 12.25 12 12.25C13.2858 12.25 14.25 11.2858 14.25 10C14.25 8.71421 13.2858 7.75 12 7.75ZM8.25 10C8.25 7.88579 9.88579 6.25 12 6.25C14.1142 6.25 15.75 7.88579 15.75 10C15.75 12.1142 14.1142 13.75 12 13.75C9.88579 13.75 8.25 12.1142 8.25 10Z" fill="#8C8E9C"/>
<path fill-rule="evenodd" clip-rule="evenodd" d="M12 7.75C10.7574 7.75 9.75 8.75736 9.75 10C9.75 11.2426 10.7574 12.25 12 12.25C13.2426 12.25 14.25 11.2426 14.25 10C14.25 8.75736 13.2426 7.75 12 7.75ZM8.25 10C8.25 7.92893 9.92893 6.25 12 6.25C14.0711 6.25 15.75 7.92893 15.75 10C15.75 12.0711 14.0711 13.75 12 13.75C9.92893 13.75 8.25 12.0711 8.25 10Z" fill="#8C8E9C"/>
</svg>
