<svg width="22" height="22" viewBox="0 0 22 22" fill="none" xmlns="http://www.w3.org/2000/svg">
<path fill-rule="evenodd" clip-rule="evenodd" d="M4.58333 4.66699C4.36232 4.66699 4.15036 4.75479 3.99408 4.91107C3.84369 5.06145 3.75672 5.2634 3.75037 5.47535C3.96075 8.79398 5.37395 11.9225 7.72587 14.2745C10.0778 16.6264 13.2063 18.0396 16.525 18.25C16.7369 18.2436 16.9389 18.1566 17.0893 18.0062C17.2455 17.85 17.3333 17.638 17.3333 17.417V14.4274L14.1693 13.1618L13.2325 14.7232C12.9647 15.1694 12.3994 15.3357 11.9327 15.1055C9.7447 14.0264 7.97388 12.2556 6.89481 10.0676C6.66461 9.60088 6.8309 9.03559 7.27717 8.76783L8.83857 7.83099L7.57297 4.66699H4.58333ZM2.57986 3.49686C3.11122 2.9655 3.83189 2.66699 4.58333 2.66699H8.25C8.6589 2.66699 9.02661 2.91594 9.17848 3.2956L11.0118 7.87893C11.1941 8.33465 11.0187 8.85529 10.5978 9.10782L9.13581 9.98503C9.86527 11.1503 10.85 12.1351 12.0153 12.8645L12.8925 11.4025C13.145 10.9816 13.6657 10.8062 14.1214 10.9885L18.7047 12.8218C19.0844 12.9737 19.3333 13.3414 19.3333 13.7503V17.417C19.3333 18.1684 19.0348 18.8891 18.5035 19.4205C17.9721 19.9518 17.2514 20.2503 16.5 20.2503C16.4798 20.2503 16.4595 20.2497 16.4393 20.2485C12.6199 20.0164 9.01741 18.3944 6.31165 15.6887C3.6059 12.9829 1.98395 9.38045 1.75184 5.56098C1.75061 5.54079 1.75 5.52056 1.75 5.50033C1.75 4.74888 2.04851 4.02821 2.57986 3.49686Z" fill="#8B8D9B"/>
</svg>
