<svg width="24" height="24" viewBox="0 0 24 24" fill="none" xmlns="http://www.w3.org/2000/svg">
<path fill-rule="evenodd" clip-rule="evenodd" d="M12.3937 4.73621C10.3729 4.65428 8.39699 5.22852 6.83375 6.33756C5.27209 7.44547 4.23676 9.00411 3.89132 10.7107C3.54636 12.415 3.90663 14.1788 4.92132 15.6795C5.05192 15.8727 5.08526 16.1156 5.01153 16.3368L4.12604 18.9932L7.54393 18.266C7.7072 18.2313 7.8774 18.252 8.02756 18.3249C9.79173 19.1814 11.854 19.4419 13.8261 19.0512C15.798 18.6606 17.5243 17.6501 18.6951 16.2297C19.8637 14.812 20.4025 13.0812 20.2337 11.3577C20.0647 9.63302 19.1954 8.00226 17.7586 6.77677C16.3199 5.54963 14.4145 4.81815 12.3937 4.73621ZM5.96581 5.11416C7.81198 3.80441 10.1176 3.14269 12.4545 3.23744C14.7914 3.33219 17.0232 4.17801 18.732 5.63552C20.4427 7.09468 21.5171 9.07324 21.7265 11.2115C21.9361 13.3509 21.2622 15.4736 19.8526 17.1838C18.4453 18.8911 16.4033 20.0698 14.1176 20.5226C11.9189 20.9582 9.61884 20.6981 7.60953 19.7856L3.15609 20.7332C2.89299 20.7891 2.62006 20.6999 2.4408 20.4994C2.26155 20.2988 2.20344 20.0176 2.2885 19.7624L3.47483 16.2034C2.39737 14.4486 2.01812 12.4042 2.42114 10.4131C2.84816 8.30345 4.11806 6.42505 5.96581 5.11416Z" fill="#8C8E9C"/>
</svg>
