<svg width="18" height="18" viewBox="0 0 18 18" fill="none" xmlns="http://www.w3.org/2000/svg">
<g clip-path="url(#clip0_1006_18727)">
<path fill-rule="evenodd" clip-rule="evenodd" d="M9 1.75C4.99594 1.75 1.75 4.99594 1.75 9C1.75 13.0041 4.99594 16.25 9 16.25C13.0041 16.25 16.25 13.0041 16.25 9C16.25 4.99594 13.0041 1.75 9 1.75ZM0.25 9C0.25 4.16751 4.16751 0.25 9 0.25C13.8325 0.25 17.75 4.16751 17.75 9C17.75 13.8325 13.8325 17.75 9 17.75C4.16751 17.75 0.25 13.8325 0.25 9ZM5.58333 7.22222C5.58333 6.80801 5.91912 6.47222 6.33333 6.47222H6.34222C6.75644 6.47222 7.09222 6.80801 7.09222 7.22222C7.09222 7.63644 6.75644 7.97222 6.34222 7.97222H6.33333C5.91912 7.97222 5.58333 7.63644 5.58333 7.22222ZM10.9167 7.22222C10.9167 6.80801 11.2525 6.47222 11.6667 6.47222H11.6756C12.0898 6.47222 12.4256 6.80801 12.4256 7.22222C12.4256 7.63644 12.0898 7.97222 11.6756 7.97222H11.6667C11.2525 7.97222 10.9167 7.63644 10.9167 7.22222ZM6.25289 11.131C6.54875 10.8411 7.0236 10.8459 7.31349 11.1418C7.53333 11.3661 7.79573 11.5444 8.08532 11.6661C8.37492 11.7878 8.68588 11.8505 9 11.8505C9.31412 11.8505 9.62508 11.7878 9.91468 11.6661C10.2043 11.5444 10.4667 11.3661 10.6865 11.1418C10.9764 10.8459 11.4512 10.8411 11.7471 11.131C12.043 11.4208 12.0478 11.8957 11.7579 12.1916C11.3984 12.5585 10.9693 12.85 10.4958 13.049C10.0222 13.248 9.51368 13.3505 9 13.3505C8.48632 13.3505 7.9778 13.248 7.50424 13.049C7.03067 12.85 6.60156 12.5585 6.24206 12.1916C5.95217 11.8957 5.95702 11.4208 6.25289 11.131Z" fill="#58B02F"/>
</g>
<defs>
<clipPath id="clip0_1006_18727">
<rect width="18" height="18" fill="white"/>
</clipPath>
</defs>
</svg>
