<svg width="115" height="40" viewBox="0 0 115 40" fill="none" xmlns="http://www.w3.org/2000/svg">
<path d="M71.0292 35.7878L70.5673 31.5659C73.8208 29.1045 77.3633 28.6026 81.1838 29.0328C84.4294 29.3993 87.7042 29.6116 90.9314 28.7859C93.1567 28.2176 94.7124 26.675 96.1478 24.9862C100.192 20.221 104.232 15.4495 108.268 10.6719C108.732 10.1223 109.254 9.59384 109.38 8.92209C106.494 9.12916 103.608 9.20621 100.721 8.82916C97.5571 8.41495 94.4241 8.47599 91.6556 10.332C90.0498 11.3941 88.8718 12.9686 87.6251 14.4424C85.5264 16.9196 83.3981 19.3625 81.1838 21.9326C80.6198 22.0629 79.8982 22.023 78.9271 21.8929L88.0638 11.1844C87.1139 10.3532 85.9463 10.194 84.7866 10.1409C83.2563 10.0532 81.7223 10.0479 80.1921 10.1249C77.9139 10.3024 75.6377 9.76356 73.6742 8.58221C72.1707 9.80891 71.2598 11.5401 69.9401 12.727H67.8201C69.2318 10.3214 71.5329 8.78399 72.8053 6.37575C73.4826 6.27218 73.8342 6.93864 74.3222 7.23599C76.3739 8.48664 78.5571 8.76011 80.8687 8.46541C83.7157 8.10159 86.4708 8.32731 89.1134 9.91249C92.7392 6.80319 97.0532 6.87224 101.496 7.29445C104.043 7.53605 106.627 7.73519 109.178 7.10855C110.642 6.74744 111.86 5.93495 112.993 4.98438C114.368 7.0475 114.35 8.74154 112.889 10.4993C109.028 15.1326 105.119 19.7501 101.241 24.3887C100.039 25.8252 98.8793 27.2936 97.6799 28.7354C95.4578 31.4171 92.4587 32.4103 89.1553 32.5191C85.8514 32.6279 82.5954 32.5191 79.3104 32.535C76.2218 32.5404 73.4041 33.3184 71.0292 35.7878Z" fill="#050D12"/>
<path d="M5.56814 13.4121H7.47394L9.41623 23.7505L14.9057 13.4121H16.9849L9.76276 26.84H8.17612L5.56814 13.4121ZM4.61979 13.4121H6.51647L5.30371 22.4594L4.54684 26.84H2.31274L4.61979 13.4121ZM15.9362 13.4121H17.8511L15.5441 26.84H13.31L14.1034 22.2656L15.9362 13.4121Z" fill="#050D12"/>
<path d="M23.7235 24.8385L24.4712 20.0522C24.5077 19.7324 24.4863 19.4434 24.4073 19.1853C24.3283 18.9269 24.1825 18.724 23.9697 18.5765C23.763 18.4228 23.4895 18.3429 23.149 18.3368C22.845 18.3305 22.5593 18.3828 22.2918 18.4935C22.0243 18.598 21.7963 18.7548 21.608 18.9639C21.4255 19.1729 21.304 19.428 21.2431 19.7294L19.1002 19.7385C19.1367 19.2159 19.2887 18.761 19.5562 18.3737C19.8297 17.9802 20.1732 17.6574 20.5866 17.4053C21.0061 17.147 21.456 16.9595 21.9362 16.8427C22.4225 16.7198 22.8967 16.6614 23.3587 16.6674C24.0275 16.6798 24.6201 16.8243 25.1368 17.1009C25.6536 17.3777 26.0457 17.768 26.3132 18.2722C26.5867 18.7764 26.6901 19.385 26.6232 20.0982L25.9028 24.5434C25.8481 24.8939 25.8086 25.2537 25.7843 25.6224C25.7661 25.9853 25.8147 26.3357 25.9302 26.6739L25.912 26.8398L23.7872 26.849C23.6961 26.5232 23.6505 26.1912 23.6505 25.853C23.6505 25.5088 23.6748 25.1705 23.7235 24.8385ZM24.7175 20.7714L24.4986 22.1457L23.076 22.1364C22.7842 22.1364 22.4833 22.164 22.1732 22.2194C21.8693 22.2747 21.5836 22.37 21.3161 22.5053C21.0486 22.6405 20.8237 22.825 20.6413 23.0587C20.459 23.286 20.3465 23.572 20.304 23.9163C20.2735 24.193 20.304 24.4328 20.3951 24.6357C20.4923 24.8324 20.6382 24.9892 20.8328 25.106C21.0273 25.2228 21.2583 25.2843 21.5258 25.2904C21.8845 25.2967 22.2371 25.2259 22.5836 25.0783C22.9362 24.9308 23.2401 24.7218 23.4955 24.4512C23.7568 24.1745 23.9362 23.8579 24.0335 23.5013L24.608 24.4974C24.4742 24.8724 24.2857 25.2167 24.0426 25.5303C23.8055 25.8438 23.5288 26.1143 23.2128 26.3418C22.8967 26.5693 22.5502 26.7445 22.1732 26.8675C21.8025 26.9904 21.4195 27.0489 21.0242 27.0427C20.4771 27.0304 19.9787 26.9044 19.5288 26.6647C19.079 26.4187 18.7233 26.0775 18.4618 25.6409C18.2005 25.2044 18.085 24.7003 18.1153 24.1284C18.1458 23.4829 18.307 22.9449 18.5987 22.5145C18.8966 22.0779 19.2765 21.7337 19.7385 21.4817C20.2066 21.2234 20.7173 21.0389 21.2705 20.9283C21.8237 20.8177 22.3708 20.7622 22.9118 20.7622L24.7175 20.7714Z" fill="#050D12"/>
<path d="M35.8333 16.8613L35.5232 18.632H31.3468L29.9334 26.84H27.7905L29.5048 16.8613H35.8333Z" fill="#050D12"/>
<path d="M38.131 23.4553L42.9457 16.8613H45.1615L43.4473 26.84H41.2953L42.435 20.2458L37.6113 26.84H35.4045L37.1189 16.8613H39.2618L38.131 23.4553Z" fill="#050D12"/>
<path d="M49.9308 25.2627C50.2894 25.2688 50.6177 25.2012 50.9156 25.0597C51.2134 24.9185 51.4597 24.7155 51.6542 24.4511C51.8548 24.1867 51.9946 23.8825 52.0737 23.5381L54.1072 23.5288C54.0281 24.2421 53.7788 24.8631 53.3594 25.3918C52.9461 25.9206 52.4293 26.3295 51.8092 26.6185C51.1952 26.9012 50.5448 27.0365 49.8578 27.0242C49.1587 27.0118 48.5599 26.8673 48.0613 26.5907C47.5689 26.3141 47.1708 25.9421 46.8668 25.4748C46.5629 25.0075 46.3501 24.4788 46.2286 23.8886C46.1129 23.2921 46.0857 22.6742 46.1464 22.0348L46.1829 21.7028C46.2558 21.0203 46.4169 20.3748 46.6662 19.7661C46.9216 19.1575 47.2589 18.6195 47.6784 18.1522C48.1039 17.6788 48.6054 17.3098 49.1831 17.0455C49.7606 16.7811 50.4111 16.6582 51.1344 16.6766C51.8639 16.6888 52.4931 16.858 53.0221 17.1838C53.5509 17.5097 53.9552 17.9555 54.2348 18.5211C54.5144 19.0806 54.6512 19.72 54.6452 20.4393L52.6299 20.4301C52.6299 20.0858 52.5722 19.7661 52.4566 19.471C52.3472 19.1697 52.1709 18.9268 51.9277 18.7425C51.6907 18.5518 51.3806 18.4503 50.9977 18.4381C50.5478 18.4258 50.1617 18.515 49.8396 18.7056C49.5234 18.8961 49.2591 19.1543 49.0462 19.4802C48.8396 19.8061 48.6753 20.1657 48.5538 20.5592C48.4383 20.9466 48.3593 21.3308 48.3167 21.7121L48.2802 22.0348C48.2498 22.3607 48.2377 22.7111 48.2438 23.0862C48.2559 23.4551 48.3137 23.8025 48.4171 24.1283C48.5204 24.4542 48.6906 24.7216 48.9277 24.9307C49.1708 25.1397 49.5052 25.2505 49.9308 25.2627Z" fill="#050D12"/>
<path d="M61.329 16.8613L59.6148 26.84H57.4628L59.1772 16.8613H61.329ZM64.4663 16.8613L64.165 18.6136H55.7849L56.0858 16.8613H64.4663Z" fill="#050D12"/>
<path d="M67.6943 18.9084L65.6699 30.6761H63.5178L65.8889 16.861H67.8677L67.6943 18.9084ZM73.4206 21.7027L73.4023 21.8964C73.3293 22.499 73.1869 23.1076 72.9739 23.7225C72.7671 24.3311 72.4847 24.8906 72.1257 25.4009C71.7734 25.9051 71.3384 26.3079 70.8218 26.6091C70.3052 26.9104 69.6973 27.0517 68.9982 27.0334C68.3843 27.021 67.8677 26.8735 67.4478 26.5906C67.0287 26.3016 66.6939 25.9266 66.4451 25.4655C66.1957 25.0044 66.0192 24.5002 65.9157 23.953C65.8191 23.3997 65.7824 22.8525 65.8068 22.3115L65.8974 21.5736C65.9948 20.9895 66.1592 20.4055 66.3903 19.8214C66.6271 19.2372 66.9313 18.7055 67.3018 18.2259C67.6729 17.7401 68.1136 17.3559 68.6241 17.0731C69.1352 16.7902 69.7217 16.6581 70.3843 16.6765C71.0591 16.695 71.6092 16.8579 72.0344 17.1652C72.4604 17.4727 72.7823 17.8724 73.0013 18.3642C73.2264 18.856 73.3658 19.3941 73.4206 19.9781C73.4814 20.5622 73.4814 21.1371 73.4206 21.7027ZM71.2508 21.8872L71.2782 21.6842C71.3079 21.3707 71.3171 21.0295 71.3049 20.6606C71.2988 20.2917 71.2477 19.9442 71.1504 19.6185C71.0531 19.2865 70.8857 19.0129 70.6484 18.7976C70.4178 18.5825 70.0953 18.4687 69.6822 18.4564C69.3049 18.438 68.9648 18.4995 68.6606 18.6409C68.3569 18.7761 68.0892 18.9667 67.8586 19.2126C67.6273 19.4586 67.4327 19.7384 67.2744 20.052C67.1229 20.3655 67.0134 20.6914 66.9464 21.0295L66.6636 22.8371C66.6453 23.2429 66.7001 23.6302 66.8278 23.9991C66.9617 24.3619 67.1686 24.66 67.4478 24.8937C67.7338 25.1274 68.0953 25.2504 68.5333 25.2626C68.9831 25.2749 69.3688 25.1796 69.6913 24.9767C70.0132 24.7739 70.2809 24.5034 70.4938 24.1651C70.7062 23.8209 70.8736 23.4489 70.9952 23.0492C71.1229 22.6435 71.2082 22.2561 71.2508 21.8872Z" fill="#050D12"/>
</svg>
