<?xml version="1.0" encoding="utf-8"?>
<!-- Generator: Adobe Illustrator 26.0.3, SVG Export Plug-In . SVG Version: 6.00 Build 0)  -->
<svg version="1.1" id="Слой_1" xmlns="http://www.w3.org/2000/svg" xmlns:xlink="http://www.w3.org/1999/xlink" x="0px" y="0px"
	 viewBox="0 0 24 24" style="enable-background:new 0 0 24 24;" xml:space="preserve">
<style type="text/css">
	.st0{fill-rule:evenodd;clip-rule:evenodd;fill:#8C8E9C;}
</style>
<path class="st0" d="M20.9,16.9L20.9,16.9l-6.4-6.4l1.8-1.8c0.3-0.3,0.5-0.8,0.5-1.2s-0.2-0.9-0.5-1.2l-3.6-3.6
	c-0.3-0.3-0.8-0.5-1.2-0.5s-0.9,0.2-1.2,0.5L8,5C7.8,5.1,7.8,5.3,7.8,5.5c0,0.2,0.1,0.4,0.2,0.5L6,7.9C5.7,7.7,5.2,7.7,5,8l-2.3,2.3
	c-0.3,0.3-0.5,0.8-0.5,1.2s0.2,0.9,0.5,1.2l3.6,3.6c0.3,0.3,0.8,0.5,1.2,0.5s0.9-0.2,1.2-0.5l1.8-1.8l6.4,6.4c0.5,0.5,1.3,0.8,2,0.8
	c1.1,0,2.2-0.7,2.6-1.8C22,18.9,21.7,17.7,20.9,16.9z M11.3,3.7c0,0,0.1-0.1,0.2-0.1s0.1,0,0.2,0.1l3.6,3.6c0,0,0.1,0.1,0.1,0.2
	s0,0.1-0.1,0.2l-1.8,1.8L9.6,5.5L11.3,3.7z M7.7,15.3c0,0-0.1,0.1-0.2,0.1s-0.1,0-0.2-0.1l-3.6-3.6c0,0-0.1-0.1-0.1-0.2
	s0-0.1,0.1-0.2l1.8-1.8l3.9,3.9L7.7,15.3z M10,11.9L7.1,9L9,7.1l2.9,2.9L10,11.9z M19.8,19.8c-0.2,0.3-0.6,0.4-0.9,0.4
	c-0.4,0-0.7-0.1-1-0.4L11.1,13l1.9-1.9l6.8,6.9c0.3,0.3,0.4,0.6,0.4,1C20.2,19.2,20.1,19.6,19.8,19.8z M10,20.2H3
	c-0.4,0-0.8,0.3-0.8,0.8s0.3,0.8,0.8,0.8h7c0.4,0,0.8-0.3,0.8-0.8S10.4,20.2,10,20.2z"/>
</svg>
