<?xml version="1.0" encoding="utf-8"?>
<!-- Generator: Adobe Illustrator 26.0.3, SVG Export Plug-In . SVG Version: 6.00 Build 0)  -->
<svg version="1.1" id="Слой_1" xmlns="http://www.w3.org/2000/svg" xmlns:xlink="http://www.w3.org/1999/xlink" x="0px" y="0px"
	 viewBox="0 0 20 20" style="enable-background:new 0 0 20 20;" xml:space="preserve">
<style type="text/css">
	.st0{fill-rule:evenodd;clip-rule:evenodd;fill:#4D48CE;}
</style>
<g>
	<path class="st0" d="M12.7,9.3l-4-4C8.4,5,8,4.9,7.6,5.1C7.2,5.2,7,5.6,7,6v8c0,0.4,0.2,0.8,0.6,0.9C8,15.1,8.4,15,8.7,14.7l4-4
		C13.1,10.3,13.1,9.7,12.7,9.3z M8,14V6l4,4L8,14z"/>
	<path class="st0" d="M8,6v8l4-4L8,6z M9,8.4l1.6,1.6L9,11.6V8.4z"/>
	<polygon class="st0" points="10.6,10 9,11.6 9,8.4 	"/>
</g>
</svg>
