<svg width="24" height="24" viewBox="0 0 24 24" fill="none" xmlns="http://www.w3.org/2000/svg">
<path fill-rule="evenodd" clip-rule="evenodd" d="M7.55556 4.75C6.00609 4.75 4.75 6.00609 4.75 7.55556V16.4444C4.75 17.9939 6.00609 19.25 7.55556 19.25H16.4444C17.9939 19.25 19.25 17.9939 19.25 16.4444V11.1111C19.25 10.6969 19.5858 10.3611 20 10.3611C20.4142 10.3611 20.75 10.6969 20.75 11.1111V16.4444C20.75 18.8223 18.8223 20.75 16.4444 20.75H7.55556C5.17766 20.75 3.25 18.8223 3.25 16.4444V7.55556C3.25 5.17766 5.17766 3.25 7.55556 3.25H12.8889C13.3031 3.25 13.6389 3.58579 13.6389 4C13.6389 4.41421 13.3031 4.75 12.8889 4.75H7.55556ZM18.3976 4.75C18.1716 4.75 17.9548 4.8398 17.7949 4.99965L10.7659 12.0287L10.3641 13.6359L11.9713 13.2341L19.0003 6.20507C19.1602 6.04522 19.25 5.82842 19.25 5.60236C19.25 5.3763 19.1602 5.1595 19.0003 4.99965C18.8405 4.8398 18.6237 4.75 18.3976 4.75ZM16.7343 3.93899C17.1754 3.49784 17.7738 3.25 18.3976 3.25C19.0215 3.25 19.6199 3.49784 20.061 3.93899C20.5022 4.38014 20.75 4.97847 20.75 5.60236C20.75 6.22624 20.5022 6.82457 20.061 7.26573L12.8851 14.4416C12.789 14.5378 12.6685 14.6059 12.5367 14.6389L9.51523 15.3943C9.25965 15.4582 8.98929 15.3833 8.803 15.197C8.61672 15.0107 8.54183 14.7403 8.60573 14.4848L9.36109 11.4633C9.39405 11.3315 9.46224 11.211 9.55836 11.1149L16.7343 3.93899Z" fill="#0F111D"/>
</svg>
