<svg width="22" height="22" viewBox="0 0 22 22" fill="none" xmlns="http://www.w3.org/2000/svg">
<path fill-rule="evenodd" clip-rule="evenodd" d="M3.88061 5.96823L11 10.7145L18.1194 5.96823C17.9714 5.73659 17.712 5.58301 17.4167 5.58301H4.58333C4.28805 5.58301 4.02863 5.73659 3.88061 5.96823ZM18.25 8.28486L11.5547 12.7484C11.2188 12.9723 10.7812 12.9723 10.4453 12.7484L3.75 8.28486V15.583C3.75 16.0432 4.1231 16.4163 4.58333 16.4163H17.4167C17.8769 16.4163 18.25 16.0432 18.25 15.583V8.28486ZM1.75 6.41634C1.75 4.85153 3.01853 3.58301 4.58333 3.58301H17.4167C18.9815 3.58301 20.25 4.85153 20.25 6.41634V15.583C20.25 17.1478 18.9815 18.4163 17.4167 18.4163H4.58333C3.01853 18.4163 1.75 17.1478 1.75 15.583V6.41634Z" fill="#8B8D9B"/>
</svg>
