<svg width="26" height="26" viewBox="0 0 26 26" fill="none" xmlns="http://www.w3.org/2000/svg">
<path fill-rule="evenodd" clip-rule="evenodd" d="M19.5857 10.7179L13.8082 6.22428C13.5865 6.05177 13.3134 5.95801 13.0325 5.95801C12.7515 5.95801 12.4786 6.05167 12.2569 6.22418L6.47814 10.718C6.47814 10.718 6.47814 10.718 6.47814 10.718C6.32634 10.8361 6.20351 10.9873 6.11905 11.16C6.0346 11.3328 5.99074 11.5226 5.99083 11.7149L5.99083 19.5157C5.99083 19.6593 6.0479 19.7971 6.14948 19.8987C6.25106 20.0003 6.38883 20.0573 6.5325 20.0573H19.5325C19.6762 20.0573 19.8139 20.0003 19.9155 19.8987C20.0171 19.7971 20.0742 19.6593 20.0742 19.5157V11.7157C20.0742 11.3255 19.8933 10.957 19.5857 10.7179ZM5.48058 9.43526L11.2591 4.94159C11.7661 4.54716 12.3901 4.33301 13.0325 4.33301C13.6749 4.33301 14.2989 4.54716 14.8059 4.94159L20.5833 9.43526C21.2875 9.98234 21.6992 10.8241 21.6992 11.7157V19.5157C21.6992 20.0903 21.4709 20.6414 21.0646 21.0477C20.6582 21.4541 20.1071 21.6823 19.5325 21.6823H6.5325C5.95786 21.6823 5.40676 21.4541 5.00043 21.0477C4.5941 20.6414 4.36583 20.0903 4.36583 19.5157V11.7157C4.36562 11.2758 4.46595 10.8416 4.65915 10.4464C4.85235 10.0512 5.13331 9.70532 5.48058 9.43526Z" fill="#0F111D"/>
</svg>
