<svg width="20" height="20" viewBox="0 0 20 20" fill="none" xmlns="http://www.w3.org/2000/svg">
<path fill-rule="evenodd" clip-rule="evenodd" d="M14.4 3.75C13.3783 3.75 12.55 4.57827 12.55 5.6C12.55 6.62173 13.3783 7.45 14.4 7.45C15.4217 7.45 16.25 6.62173 16.25 5.6C16.25 4.57827 15.4217 3.75 14.4 3.75ZM11.05 5.6C11.05 3.74985 12.5498 2.25 14.4 2.25C16.2502 2.25 17.75 3.74985 17.75 5.6C17.75 7.45015 16.2502 8.95 14.4 8.95C12.5498 8.95 11.05 7.45015 11.05 5.6ZM3.97735 4.71068C4.44307 4.24497 5.07471 3.98333 5.73333 3.98333H8.33333C8.74755 3.98333 9.08333 4.31912 9.08333 4.73333C9.08333 5.14755 8.74755 5.48333 8.33333 5.48333H5.73333C5.47254 5.48333 5.22242 5.58693 5.03801 5.77134C4.8536 5.95576 4.75 6.20587 4.75 6.46667V14.2667C4.75 14.5275 4.8536 14.7776 5.03801 14.962C5.22242 15.1464 5.47254 15.25 5.73333 15.25H13.5333C13.7941 15.25 14.0442 15.1464 14.2287 14.962C14.4131 14.7776 14.5167 14.5275 14.5167 14.2667V11.6667C14.5167 11.2525 14.8525 10.9167 15.2667 10.9167C15.6809 10.9167 16.0167 11.2525 16.0167 11.6667V14.2667C16.0167 14.9253 15.755 15.5569 15.2893 16.0226C14.8236 16.4884 14.192 16.75 13.5333 16.75H5.73333C5.07471 16.75 4.44307 16.4884 3.97735 16.0226C3.51164 15.5569 3.25 14.9253 3.25 14.2667V6.46667C3.25 5.80805 3.51164 5.1764 3.97735 4.71068Z" fill="#8B8D9B"/>
</svg>
