<svg width="36" height="36" viewBox="0 0 36 36" fill="none" xmlns="http://www.w3.org/2000/svg">
<path fill-rule="evenodd" clip-rule="evenodd" d="M12.5605 12.5615C12.8534 12.2686 13.3283 12.2686 13.6212 12.5615L17.9999 16.9402L22.3787 12.5615C22.6716 12.2686 23.1464 12.2686 23.4393 12.5615C23.7322 12.8544 23.7322 13.3292 23.4393 13.6221L19.0606 18.0009L23.4393 22.3796C23.7322 22.6725 23.7322 23.1474 23.4393 23.4403C23.1464 23.7332 22.6716 23.7332 22.3787 23.4403L17.9999 19.0615L13.6212 23.4403C13.3283 23.7332 12.8534 23.7332 12.5605 23.4403C12.2676 23.1474 12.2676 22.6725 12.5605 22.3796L16.9393 18.0009L12.5605 13.6221C12.2676 13.3292 12.2676 12.8544 12.5605 12.5615Z" fill="#8B8D9B"/>
</svg>
