<svg width="24" height="24" viewBox="0 0 24 24" fill="none" xmlns="http://www.w3.org/2000/svg">
<path fill-rule="evenodd" clip-rule="evenodd" d="M12 3.75C7.44365 3.75 3.75 7.44365 3.75 12C3.75 16.5563 7.44365 20.25 12 20.25C16.5563 20.25 20.25 16.5563 20.25 12C20.25 7.44365 16.5563 3.75 12 3.75ZM2.25 12C2.25 6.61522 6.61522 2.25 12 2.25C17.3848 2.25 21.75 6.61522 21.75 12C21.75 17.3848 17.3848 21.75 12 21.75C6.61522 21.75 2.25 17.3848 2.25 12ZM10.25 7.91421C10.25 7.5 10.5858 7.16421 11 7.16421H13.5858C14.3151 7.16421 15.0146 7.45395 15.5303 7.96967C16.0461 8.48539 16.3358 9.18487 16.3358 9.91421C16.3358 10.6436 16.0461 11.343 15.5303 11.8588C15.0146 12.3745 14.3151 12.6642 13.5858 12.6642H11.75V13.75H13C13.4142 13.75 13.75 14.0858 13.75 14.5C13.75 14.9142 13.4142 15.25 13 15.25H11.75V16.5C11.75 16.9142 11.4142 17.25 11 17.25C10.5858 17.25 10.25 16.9142 10.25 16.5V15.25H9C8.58579 15.25 8.25 14.9142 8.25 14.5C8.25 14.0858 8.58579 13.75 9 13.75H10.25V7.91421ZM11.75 11.1642H13.5858C13.9173 11.1642 14.2352 11.0325 14.4697 10.7981C14.7041 10.5637 14.8358 10.2457 14.8358 9.91421C14.8358 9.58269 14.7041 9.26475 14.4697 9.03033C14.2352 8.79591 13.9173 8.66421 13.5858 8.66421H11.75V11.1642Z" fill="#8C8E9C"/>
</svg>
