<svg width="18" height="18" viewBox="0 0 18 18" fill="none" xmlns="http://www.w3.org/2000/svg">
<g clip-path="url(#clip0_1006_18724)">
<path fill-rule="evenodd" clip-rule="evenodd" d="M9 1.75C4.99594 1.75 1.75 4.99594 1.75 9C1.75 13.0041 4.99594 16.25 9 16.25C13.0041 16.25 16.25 13.0041 16.25 9C16.25 4.99594 13.0041 1.75 9 1.75ZM0.25 9C0.25 4.16751 4.16751 0.25 9 0.25C13.8325 0.25 17.75 4.16751 17.75 9C17.75 13.8325 13.8325 17.75 9 17.75C4.16751 17.75 0.25 13.8325 0.25 9ZM5.58333 7.22222C5.58333 6.80801 5.91912 6.47222 6.33333 6.47222H6.34222C6.75644 6.47222 7.09222 6.80801 7.09222 7.22222C7.09222 7.63644 6.75644 7.97222 6.34222 7.97222H6.33333C5.91912 7.97222 5.58333 7.63644 5.58333 7.22222ZM10.9167 7.22222C10.9167 6.80801 11.2525 6.47222 11.6667 6.47222H11.6756C12.0898 6.47222 12.4256 6.80801 12.4256 7.22222C12.4256 7.63644 12.0898 7.97222 11.6756 7.97222H11.6667C11.2525 7.97222 10.9167 7.63644 10.9167 7.22222ZM9 11.7053C8.68588 11.7053 8.37492 11.768 8.08532 11.8897C7.79573 12.0114 7.53333 12.1896 7.31349 12.414C7.0236 12.7098 6.54875 12.7147 6.25289 12.4248C5.95702 12.1349 5.95217 11.6601 6.24206 11.3642C6.60156 10.9973 7.03067 10.7058 7.50424 10.5068C7.9778 10.3078 8.48632 10.2053 9 10.2053C9.51368 10.2053 10.0222 10.3078 10.4958 10.5068C10.9693 10.7058 11.3984 10.9973 11.7579 11.3642C12.0478 11.6601 12.043 12.1349 11.7471 12.4248C11.4512 12.7147 10.9764 12.7098 10.6865 12.414C10.4667 12.1896 10.2043 12.0114 9.91468 11.8897C9.62508 11.768 9.31412 11.7053 9 11.7053Z" fill="#CE4848"/>
</g>
<defs>
<clipPath id="clip0_1006_18724">
<rect width="18" height="18" fill="white"/>
</clipPath>
</defs>
</svg>
