<svg width="24" height="24" viewBox="0 0 24 24" fill="none" xmlns="http://www.w3.org/2000/svg">
<path fill-rule="evenodd" clip-rule="evenodd" d="M12 3.75C10.0772 3.75 8.23311 4.51384 6.87348 5.87348C5.51384 7.23311 4.75 9.07718 4.75 11V11.5499C5.12503 11.3581 5.54989 11.25 6 11.25C7.51878 11.25 8.75 12.4812 8.75 14V16C8.75 17.5188 7.51878 18.75 6 18.75C4.48122 18.75 3.25 17.5188 3.25 16V11C3.25 8.67936 4.17187 6.45376 5.81282 4.81282C7.45376 3.17187 9.67936 2.25 12 2.25C14.3206 2.25 16.5462 3.17187 18.1872 4.81282C19.8281 6.45376 20.75 8.67936 20.75 11V16C20.75 17.2948 19.8551 18.3806 18.6501 18.6727C18.3754 19.5779 17.5631 20.2996 16.5781 20.7921C15.3248 21.4188 13.6777 21.75 12 21.75C11.5858 21.75 11.25 21.4142 11.25 21C11.25 20.5858 11.5858 20.25 12 20.25C13.5049 20.25 14.91 19.9491 15.9072 19.4505C16.4874 19.1604 16.8396 18.8543 17.0368 18.5766C15.9931 18.1863 15.25 17.1799 15.25 16V14C15.25 12.4812 16.4812 11.25 18 11.25C18.4501 11.25 18.875 11.3581 19.25 11.5499V11C19.25 9.07718 18.4862 7.23311 17.1265 5.87348C15.7669 4.51384 13.9228 3.75 12 3.75ZM19.25 14C19.25 13.3096 18.6904 12.75 18 12.75C17.3096 12.75 16.75 13.3096 16.75 14V16C16.75 16.6904 17.3096 17.25 18 17.25C18.6904 17.25 19.25 16.6904 19.25 16V14ZM4.75 14V16C4.75 16.6904 5.30964 17.25 6 17.25C6.69036 17.25 7.25 16.6904 7.25 16V14C7.25 13.3096 6.69036 12.75 6 12.75C5.30964 12.75 4.75 13.3096 4.75 14Z" fill="#8C8E9C"/>
</svg>
