<?xml version="1.0" encoding="utf-8"?>
<!-- Generator: Adobe Illustrator 26.0.3, SVG Export Plug-In . SVG Version: 6.00 Build 0)  -->
<svg version="1.1" id="Слой_1" xmlns="http://www.w3.org/2000/svg" xmlns:xlink="http://www.w3.org/1999/xlink" x="0px" y="0px"
	 viewBox="0 0 24 24" style="enable-background:new 0 0 24 24;" xml:space="preserve">
<style type="text/css">
	.st0{fill-rule:evenodd;clip-rule:evenodd;fill:#CE4848;}
</style>
<path class="st0" d="M19.9,8L19,19.2c0,0.7-0.3,1.4-0.8,1.9C17.7,21.7,17,22,16.3,22H7.7c-0.7,0-1.4-0.3-1.9-0.8
	C5.3,20.7,5,20,5,19.2L4.1,8h2L7,19.1v0.1c0,0.2,0.1,0.4,0.2,0.6C7.4,19.9,7.5,20,7.7,20h8.6c0.2,0,0.4-0.1,0.5-0.2
	c0.1-0.1,0.2-0.4,0.2-0.6v-0.1L17.9,8H19.9z"/>
<path class="st0" d="M16.4,4.8V6h-2V4.8c0-0.2-0.1-0.4-0.2-0.6C14.1,4.1,13.9,4,13.7,4h-3.4c-0.2,0-0.3,0.1-0.5,0.2
	C9.7,4.4,9.6,4.6,9.6,4.8V6h-2V4.8c0-0.7,0.3-1.4,0.8-2C8.8,2.3,9.5,2,10.3,2h3.4c0.7,0,1.4,0.3,1.9,0.8C16.2,3.4,16.4,4.1,16.4,4.8
	z"/>
<path class="st0" d="M20,7.1L19.9,8H4.1L4,7.1c0-0.3,0.1-0.5,0.3-0.8C4.5,6.1,4.7,6,5,6h14c0.3,0,0.5,0.1,0.7,0.3
	C19.9,6.5,20,6.8,20,7.1z"/>
<path class="st0" d="M4.3,6.3C4.1,6.5,4,6.8,4,7.1L4.1,8H4C3.5,8,3,7.5,3,7s0.5-1,1-1h1C4.7,6,4.5,6.1,4.3,6.3z"/>
<path class="st0" d="M21,7c0,0.5-0.5,1-1,1h-0.1L20,7.1c0-0.3-0.1-0.5-0.3-0.8C19.5,6.1,19.3,6,19,6h1C20.5,6,21,6.5,21,7z"/>
</svg>
