<svg width="24" height="24" viewBox="0 0 24 24" fill="none" xmlns="http://www.w3.org/2000/svg">
<path d="M12.0002 16.0005V16.0105V16.0005Z" fill="#CE4848"/>
<path d="M5.00019 20.0005H19.0002C19.3265 19.9982 19.6473 19.9161 19.9346 19.7614C20.2219 19.6066 20.4669 19.3839 20.6484 19.1127C20.8299 18.8415 20.9422 18.53 20.9756 18.2054C21.0091 17.8809 20.9626 17.553 20.8402 17.2505L13.7402 5.0005C13.5672 4.6879 13.3137 4.42733 13.0059 4.24589C12.6982 4.06445 12.3474 3.96875 11.9902 3.96875C11.6329 3.96875 11.2822 4.06445 10.9744 4.24589C10.6667 4.42733 10.4131 4.6879 10.2402 5.0005L3.14019 17.2505C3.02013 17.5461 2.97252 17.8661 3.00134 18.1838C3.03016 18.5015 3.13456 18.8078 3.30584 19.0769C3.47712 19.3461 3.7103 19.5703 3.98592 19.731C4.26153 19.8917 4.57158 19.9841 4.89019 20.0005" fill="#CE4848"/>
<path d="M12.0002 10.0005V12.0005M12.0002 16.0005V16.0105M5.00019 20.0005H19.0002C19.3265 19.9982 19.6473 19.9161 19.9346 19.7614C20.2219 19.6066 20.4669 19.3839 20.6484 19.1127C20.8299 18.8415 20.9422 18.53 20.9756 18.2054C21.0091 17.8809 20.9626 17.553 20.8402 17.2505L13.7402 5.0005C13.5672 4.6879 13.3137 4.42733 13.0059 4.24589C12.6982 4.06445 12.3474 3.96875 11.9902 3.96875C11.6329 3.96875 11.2822 4.06445 10.9744 4.24589C10.6667 4.42733 10.4131 4.6879 10.2402 5.0005L3.14019 17.2505C3.02013 17.5461 2.97252 17.8661 3.00134 18.1838C3.03016 18.5015 3.13456 18.8078 3.30584 19.0769C3.47712 19.3461 3.7103 19.5703 3.98592 19.731C4.26153 19.8917 4.57158 19.9841 4.89019 20.0005" stroke="#CE4848" stroke-width="2" stroke-linecap="round" stroke-linejoin="round"/>
<path d="M12 10V12M12 16V16.01" stroke="#FBDFDF" stroke-width="2" stroke-linecap="round" stroke-linejoin="round"/>
</svg>
