<svg width="30" height="30" viewBox="0 0 30 30" fill="none" xmlns="http://www.w3.org/2000/svg">
<rect width="30" height="30" rx="15" fill="url(#paint0_linear_1059_12251)"/>
<path d="M10.2002 16.1996V17.3996C10.2002 18.0624 10.7375 18.5996 11.4002 18.5996C12.0629 18.5996 12.6002 18.0624 12.6002 17.3996V16.1996C12.6002 15.5369 12.0629 14.9996 11.4002 14.9996C10.7375 14.9996 10.2002 15.5369 10.2002 16.1996ZM10.2002 16.1996V14.3996C10.2002 13.1266 10.7059 11.9057 11.6061 11.0055C12.5063 10.1053 13.7272 9.59961 15.0002 9.59961C16.2732 9.59961 17.4941 10.1053 18.3943 11.0055C19.2945 11.9057 19.8002 13.1266 19.8002 14.3996V16.1996M19.8002 16.1996C19.8002 15.5369 19.2629 14.9996 18.6002 14.9996C17.9375 14.9996 17.4002 15.5369 17.4002 16.1996V17.3996C17.4002 18.0624 17.9375 18.5996 18.6002 18.5996M19.8002 16.1996V17.3996C19.8002 18.0624 19.2629 18.5996 18.6002 18.5996M18.6002 18.5996C18.6002 19.077 18.2209 19.5348 17.5458 19.8724C16.8706 20.21 15.955 20.3996 15.0002 20.3996" stroke="white" stroke-width="1.2" stroke-linecap="round" stroke-linejoin="round"/>
<defs>
<linearGradient id="paint0_linear_1059_12251" x1="-3.375" y1="-2.625" x2="35.625" y2="32.25" gradientUnits="userSpaceOnUse">
<stop stop-color="#FF5656"/>
<stop offset="1" stop-color="#5649E9"/>
</linearGradient>
</defs>
</svg>
