<svg width="24" height="24" viewBox="0 0 24 24" fill="none" xmlns="http://www.w3.org/2000/svg">
<path d="M12 21C16.9706 21 21 16.9706 21 12C21 7.02944 16.9706 3 12 3C7.02944 3 3 7.02944 3 12C3 16.9706 7.02944 21 12 21Z" fill="#CE4848"/>
<path d="M14 10L10 14L14 10Z" fill="#CE4848"/>
<path d="M10 10L14 14M14 10L10 14M21 12C21 16.9706 16.9706 21 12 21C7.02944 21 3 16.9706 3 12C3 7.02944 7.02944 3 12 3C16.9706 3 21 7.02944 21 12Z" stroke="#CE4848" stroke-width="2" stroke-linecap="round" stroke-linejoin="round"/>
<path d="M15 9L9 15L15 9Z" fill="#CE4848"/>
<path d="M9 9L15 15M15 9L9 15" stroke="white" stroke-width="2" stroke-linecap="round" stroke-linejoin="round"/>
</svg>
