<svg width="52" height="52" viewBox="0 0 52 52" fill="none" xmlns="http://www.w3.org/2000/svg">
<rect width="52" height="52" rx="20" fill="#6E83B7"/>
<path d="M25.8107 42.8814C33.6472 42.8814 40 39.2143 40 34.6907C40 30.1671 33.6472 26.5 25.8107 26.5C17.9742 26.5 11.6214 30.1671 11.6214 34.6907C11.6214 39.2143 17.9742 42.8814 25.8107 42.8814Z" fill="#EDF3FD"/>
<path d="M25.8105 26.4995C30.3341 26.4995 34.0012 22.8324 34.0012 18.3089C34.0012 13.7853 30.3341 10.1182 25.8105 10.1182C21.2869 10.1182 17.6198 13.7853 17.6198 18.3089C17.6198 22.8324 21.2869 26.4995 25.8105 26.4995Z" fill="#EDF3FD"/>
<path d="M25.8107 36.3288L33.9999 28C30.4999 26.5 28.1632 26.5 25.8107 26.5C23.4581 26.5 20.9999 26.5 17.4999 28L25.8107 36.3288Z" fill="#D6E1F3"/>
</svg>
