<svg width="92" height="32" viewBox="0 0 92 32" fill="none" xmlns="http://www.w3.org/2000/svg">
<path d="M56.8234 28.63L56.4539 25.2525C59.0567 23.2834 61.8907 22.8819 64.9471 23.226C67.5436 23.5192 70.1634 23.6891 72.7452 23.0285C74.5254 22.5739 75.77 21.3398 76.9183 19.9888C80.1539 16.1766 83.3856 12.3594 86.6144 8.5373C86.9858 8.09762 87.4034 7.67487 87.5042 7.13747C85.1954 7.30313 82.8862 7.36477 80.5769 7.06313C78.0457 6.73176 75.5393 6.78059 73.3245 8.26539C72.0399 9.11507 71.0975 10.3747 70.1001 11.5537C68.4212 13.5355 66.7185 15.4898 64.9471 17.5459C64.4959 17.6501 63.9186 17.6182 63.1417 17.5141L70.4511 8.94729C69.6912 8.28238 68.7571 8.15497 67.8293 8.11248C66.6051 8.04238 65.3779 8.0381 64.1537 8.09973C62.3312 8.24171 60.5102 7.81065 58.9394 6.86557C57.7366 7.84693 57.0079 9.23189 55.9521 10.1814H54.2561C55.3855 8.25693 57.2264 7.02699 58.2443 5.1004C58.7861 5.01754 59.0674 5.55071 59.4578 5.78859C61.0992 6.78911 62.8457 7.00789 64.695 6.77213C66.9726 6.48107 69.1767 6.66165 71.2908 7.92979C74.1914 5.44235 77.6426 5.49759 81.1966 5.83536C83.2347 6.02864 85.302 6.18795 87.3426 5.68664C88.5137 5.39775 89.4878 4.74776 90.3946 3.9873C91.4947 5.6378 91.4801 6.99303 90.3109 8.39925C87.2228 12.1059 84.0953 15.7999 80.9926 19.5108C80.0312 20.66 79.1035 21.8347 78.144 22.9881C76.3663 25.1335 73.967 25.928 71.3243 26.0151C68.6812 26.1021 66.0764 26.0151 63.4484 26.0278C60.9775 26.0321 58.7233 26.6545 56.8234 28.63Z" fill="white"/>
<path d="M4.45443 10.7295H5.97907L7.5329 19.0002L11.9245 10.7295H13.5878L7.81012 21.4718H6.54081L4.45443 10.7295ZM3.69575 10.7295H5.21309L4.24288 17.9673L3.63739 21.4718H1.85011L3.69575 10.7295ZM12.7489 10.7295H14.2808L12.4352 21.4718H10.6479L11.2826 17.8123L12.7489 10.7295Z" fill="white"/>
<path d="M18.9788 19.8712L19.577 16.0421C19.6062 15.7863 19.5891 15.5551 19.5259 15.3486C19.4627 15.1419 19.346 14.9796 19.1758 14.8616C19.0104 14.7386 18.7916 14.6747 18.5192 14.6698C18.276 14.6648 18.0475 14.7066 17.8335 14.7952C17.6195 14.8788 17.4371 15.0042 17.2864 15.1715C17.1404 15.3387 17.0432 15.5428 16.9945 15.7839L15.2802 15.7912C15.3094 15.3731 15.431 15.0092 15.645 14.6993C15.8638 14.3845 16.1386 14.1263 16.4693 13.9246C16.8049 13.718 17.1648 13.568 17.549 13.4745C17.938 13.3762 18.3174 13.3295 18.687 13.3343C19.222 13.3442 19.6961 13.4598 20.1095 13.6811C20.5229 13.9025 20.8366 14.2148 21.0506 14.6181C21.2694 15.0215 21.3521 15.5084 21.2986 16.0789L20.7223 19.6351C20.6785 19.9155 20.6469 20.2033 20.6275 20.4983C20.6129 20.7886 20.6518 21.0689 20.7442 21.3395L20.7296 21.4722L19.0298 21.4796C18.9569 21.2189 18.9204 20.9533 18.9204 20.6828C18.9204 20.4074 18.9399 20.1368 18.9788 19.8712ZM19.774 16.6175L19.5989 17.7169L18.4608 17.7095C18.2274 17.7095 17.9867 17.7316 17.7386 17.7759C17.4955 17.8201 17.2669 17.8964 17.0529 18.0046C16.8389 18.1128 16.659 18.2604 16.5131 18.4473C16.3672 18.6292 16.2772 18.858 16.2432 19.1334C16.2188 19.3548 16.2432 19.5466 16.3161 19.7089C16.3939 19.8663 16.5106 19.9917 16.6663 20.0852C16.8219 20.1786 17.0067 20.2278 17.2207 20.2327C17.5076 20.2377 17.7897 20.1811 18.0669 20.063C18.349 19.945 18.5921 19.7778 18.7964 19.5613C19.0055 19.34 19.149 19.0867 19.2268 18.8014L19.6864 19.5983C19.5794 19.8983 19.4286 20.1737 19.2341 20.4246C19.0444 20.6754 18.8231 20.8918 18.5703 21.0738C18.3174 21.2558 18.0402 21.396 17.7386 21.4944C17.442 21.5927 17.1356 21.6395 16.8194 21.6345C16.3817 21.6247 15.983 21.5239 15.6231 21.3321C15.2632 21.1353 14.9787 20.8624 14.7695 20.5131C14.5604 20.1639 14.468 19.7606 14.4923 19.3031C14.5167 18.7867 14.6456 18.3563 14.879 18.012C15.1173 17.6627 15.4212 17.3873 15.7908 17.1857C16.1653 16.9791 16.5739 16.8315 17.0164 16.743C17.459 16.6545 17.8967 16.6101 18.3295 16.6101L19.774 16.6175Z" fill="white"/>
<path d="M28.6666 13.4893L28.4185 14.9058H25.0774L23.9467 21.4722H22.2324L23.6038 13.4893H28.6666Z" fill="white"/>
<path d="M30.5049 18.7645L34.3566 13.4893H36.1293L34.7579 21.4722H33.0363L33.9481 16.1969L30.0891 21.4722H28.3237L29.6952 13.4893H31.4095L30.5049 18.7645Z" fill="white"/>
<path d="M39.9447 20.2102C40.2316 20.2151 40.4942 20.161 40.7325 20.0478C40.9708 19.9348 41.1678 19.7724 41.3234 19.5609C41.4839 19.3494 41.5957 19.106 41.659 18.8305L43.2858 18.8231C43.2225 19.3937 43.0231 19.8905 42.6876 20.3135C42.3569 20.7365 41.9435 21.0636 41.4474 21.2948C40.9562 21.521 40.4359 21.6292 39.8863 21.6194C39.327 21.6095 38.848 21.4939 38.4491 21.2726C38.0552 21.0513 37.7367 20.7537 37.4935 20.3799C37.2504 20.006 37.0801 19.5831 36.9829 19.1109C36.8904 18.6337 36.8686 18.1394 36.9172 17.6279L36.9464 17.3623C37.0047 16.8163 37.1336 16.2999 37.333 15.8129C37.5373 15.326 37.8072 14.8956 38.1428 14.5218C38.4832 14.1431 38.8844 13.8479 39.3465 13.6364C39.8085 13.4249 40.3289 13.3266 40.9076 13.3413C41.4912 13.3511 41.9945 13.4864 42.4177 13.7471C42.8408 14.0078 43.1642 14.3644 43.3879 14.8169C43.6116 15.2645 43.721 15.776 43.7162 16.3515L42.104 16.3441C42.104 16.0687 42.0578 15.8129 41.9653 15.5768C41.8778 15.3358 41.7368 15.1415 41.5422 14.994C41.3526 14.8415 41.1045 14.7603 40.7982 14.7505C40.4383 14.7407 40.1294 14.812 39.8717 14.9645C39.6188 15.1169 39.4073 15.3235 39.237 15.5842C39.0717 15.8449 38.9403 16.1326 38.8431 16.4474C38.7507 16.7573 38.6875 17.0647 38.6534 17.3697L38.6242 17.6279C38.5999 17.8886 38.5902 18.1689 38.5951 18.469C38.6048 18.7641 38.651 19.042 38.7337 19.3027C38.8164 19.5634 38.9525 19.7773 39.1422 19.9446C39.3367 20.1118 39.6042 20.2004 39.9447 20.2102Z" fill="white"/>
<path d="M49.0633 13.4893L47.6919 21.4722H45.9703L47.3418 13.4893H49.0633ZM51.5731 13.4893L51.3321 14.8911H44.628L44.8687 13.4893H51.5731Z" fill="white"/>
<path d="M54.1554 15.1267L52.5359 24.5409H50.8142L52.7111 13.4888H54.2941L54.1554 15.1267ZM58.7364 17.3622L58.7218 17.5171C58.6634 17.9992 58.5495 18.4861 58.3791 18.978C58.2136 19.4649 57.9877 19.9125 57.7005 20.3207C57.4187 20.7241 57.0707 21.0463 56.6574 21.2873C56.2441 21.5283 55.7578 21.6414 55.1985 21.6267C54.7074 21.6168 54.2941 21.4988 53.9582 21.2725C53.6229 21.0413 53.3551 20.7413 53.156 20.3724C52.9565 20.0035 52.8153 19.6002 52.7325 19.1624C52.6552 18.7198 52.6259 18.282 52.6454 17.8492L52.7179 17.2589C52.7958 16.7916 52.9273 16.3244 53.1122 15.8571C53.3016 15.3898 53.545 14.9644 53.8414 14.5807C54.1383 14.1921 54.4908 13.8847 54.8992 13.6585C55.3081 13.4322 55.7773 13.3265 56.3074 13.3412C56.8472 13.356 57.2873 13.4863 57.6275 13.7322C57.9683 13.9782 58.2258 14.2979 58.401 14.6914C58.5811 15.0848 58.6926 15.5153 58.7364 15.9825C58.7851 16.4498 58.7851 16.9097 58.7364 17.3622ZM57.0006 17.5098L57.0225 17.3474C57.0463 17.0966 57.0536 16.8236 57.0439 16.5285C57.039 16.2334 56.9981 15.9554 56.9203 15.6948C56.8424 15.4292 56.7085 15.2103 56.5187 15.0381C56.3342 14.866 56.0762 14.775 55.7457 14.7651C55.4439 14.7504 55.1718 14.7996 54.9284 14.9127C54.6855 15.0209 54.4713 15.1734 54.2868 15.3701C54.1018 15.5669 53.9461 15.7907 53.8195 16.0416C53.6983 16.2924 53.6107 16.5531 53.5571 16.8236L53.3308 18.2697C53.3162 18.5943 53.36 18.9042 53.4622 19.1993C53.5693 19.4895 53.7348 19.728 53.9582 19.915C54.187 20.1019 54.4762 20.2003 54.8266 20.2101C55.1864 20.2199 55.495 20.1437 55.753 19.9814C56.0105 19.8191 56.2247 19.6027 56.395 19.3321C56.5649 19.0567 56.6988 18.7591 56.7961 18.4394C56.8983 18.1148 56.9665 17.8049 57.0006 17.5098Z" fill="white"/>
</svg>
