<svg width="40" height="40" viewBox="0 0 40 40" fill="none" xmlns="http://www.w3.org/2000/svg">
<path d="M38.5332 11.7695L26.9488 0.183594C26.8909 0.125503 26.8221 0.0793907 26.7464 0.0478894C26.6707 0.016388 26.5895 0.000115109 26.5074 0L13.3855 0C10.3316 0 7.84727 2.48516 7.84727 5.53906V16.5008H2.98633C2.04727 16.5008 1.2832 17.2648 1.2832 18.2039V27.9945C1.2832 28.9336 2.04727 29.6977 2.98633 29.6977H7.84727V34.4609C7.84727 37.5148 10.3316 40 13.3855 40H33.1777C36.2316 40 38.716 37.5148 38.716 34.4609V12.2117C38.716 12.0461 38.6504 11.8867 38.5332 11.7695ZM4.61211 26.4508V19.75C4.61211 19.4047 4.89102 19.125 5.23633 19.125H7.24883C8.70352 19.125 9.88711 20.3086 9.88711 21.7625V24.4383C9.88711 25.8922 8.70352 27.0758 7.24883 27.0758H5.23633C4.89102 27.0758 4.61211 26.7961 4.61211 26.4508ZM10.8387 24.4383V21.7625C10.8387 20.307 12.0223 19.1227 13.477 19.1227C14.9309 19.1227 16.1145 20.307 16.1145 21.7625V24.4383C16.1145 25.8922 14.9309 27.0758 13.477 27.0758C12.0223 27.0758 10.8387 25.8922 10.8387 24.4383ZM19.5957 25.8266C20.3613 25.8266 20.984 25.2039 20.984 24.4383C20.984 24.093 21.2637 23.8133 21.6082 23.8133C21.9535 23.8133 22.2332 24.093 22.2332 24.4383C22.2332 25.8922 21.0496 27.0758 19.5957 27.0758C18.141 27.0758 16.9582 25.8922 16.9582 24.4383V21.7625C16.9582 20.307 18.141 19.1227 19.5957 19.1227C21.0496 19.1227 22.2332 20.307 22.2332 21.7625C22.2332 22.1078 21.9535 22.3875 21.6082 22.3875C21.2637 22.3875 20.984 22.1078 20.984 21.7625C20.984 20.9961 20.3613 20.3719 19.5957 20.3719C18.8301 20.3719 18.2066 20.9961 18.2066 21.7625V24.4383C18.2066 25.2039 18.8301 25.8266 19.5957 25.8266ZM22.8645 20.0695C22.6871 19.7734 22.7832 19.3898 23.0785 19.2125C23.1488 19.1702 23.2267 19.1422 23.3078 19.13C23.3889 19.1178 23.4716 19.1217 23.5512 19.1415C23.6308 19.1613 23.7057 19.1966 23.7717 19.2454C23.8376 19.2942 23.8933 19.3555 23.9356 19.4258L25.4129 21.8867L26.891 19.4258C26.9333 19.3555 26.9889 19.2942 27.0549 19.2454C27.1208 19.1966 27.1957 19.1613 27.2753 19.1415C27.3549 19.1217 27.4376 19.1178 27.5188 19.13C27.5999 19.1422 27.6778 19.1702 27.748 19.2125C27.8184 19.2547 27.8796 19.3104 27.9284 19.3764C27.9772 19.4423 28.0125 19.5172 28.0323 19.5968C28.0521 19.6764 28.056 19.7591 28.0439 19.8402C28.0317 19.9213 28.0036 19.9993 27.9613 20.0695L26.1418 23.0992L27.9613 26.1297C28.1395 26.425 28.0434 26.8086 27.748 26.9867C27.651 27.0449 27.5401 27.0757 27.427 27.0758C27.2145 27.0758 27.0082 26.968 26.891 26.7727L25.4129 24.3125L23.9356 26.7727C23.8801 26.8652 23.8015 26.9418 23.7076 26.9949C23.6136 27.048 23.5075 27.0759 23.3996 27.0758C23.2902 27.0758 23.1793 27.0469 23.0785 26.9867C22.7832 26.8086 22.6871 26.425 22.8645 26.1297L24.6848 23.0992L22.8645 20.0695ZM37.4668 34.4609C37.4668 36.8266 35.5426 38.7508 33.1777 38.7508H13.3855C11.0207 38.7508 9.09649 36.8266 9.09649 34.4609V29.6977H29.6738C30.6129 29.6977 31.377 28.9336 31.377 27.9945V18.2039C31.377 17.2648 30.6129 16.5008 29.6738 16.5008H9.09649V5.53906C9.09649 3.17344 11.0207 1.24922 13.3855 1.24922H25.8824V10.9602C25.8824 11.9945 26.723 12.8359 27.7559 12.8359H37.4668V34.4609ZM13.477 25.8266C12.7113 25.8266 12.0879 25.2039 12.0879 24.4383V21.7625C12.0879 20.9961 12.7113 20.3719 13.477 20.3719C14.2426 20.3719 14.8652 20.9961 14.8652 21.7625V24.4383C14.8652 25.2039 14.2426 25.8266 13.477 25.8266ZM7.24883 25.8266H5.86055V20.3742H7.24883C8.01523 20.3742 8.63789 20.9969 8.63789 21.7625V24.4383C8.63789 25.2039 8.01523 25.8266 7.24883 25.8266Z" fill="#4D48CE"/>
</svg>
