<svg width="40" height="40" viewBox="0 0 40 40" fill="none" xmlns="http://www.w3.org/2000/svg">
<path d="M38.5332 11.7695L26.9488 0.183594C26.8909 0.125503 26.8221 0.0793907 26.7464 0.0478894C26.6707 0.016388 26.5895 0.000115109 26.5074 0L13.3855 0C10.3316 0 7.84727 2.48516 7.84727 5.53906V16.5008H2.98633C2.04727 16.5008 1.2832 17.2648 1.2832 18.2039V27.9945C1.2832 28.9336 2.04727 29.6977 2.98633 29.6977H7.84727V34.4609C7.84727 37.5148 10.3316 40 13.3855 40H33.1777C36.2316 40 38.716 37.5148 38.716 34.4609V12.2117C38.716 12.0461 38.6504 11.8867 38.5332 11.7695ZM7.51289 26.4508V19.75C7.51289 19.4047 7.79258 19.125 8.13711 19.125H10.1504C11.6051 19.125 12.7879 20.3086 12.7879 21.7625V21.8469C12.7879 23.3016 11.6051 24.4844 10.1504 24.4844H8.76211V26.4508C8.76211 26.7961 8.48242 27.0758 8.13711 27.0758C7.79258 27.0758 7.51289 26.7961 7.51289 26.4508ZM13.9176 26.4508V19.75C13.9176 19.4047 14.1973 19.125 14.5418 19.125H16.5551C18.009 19.125 19.1926 20.3086 19.1926 21.7625V21.8469C19.1926 23.3016 18.009 24.4844 16.5551 24.4844H15.166V26.4508C15.166 26.7961 14.8871 27.0758 14.5418 27.0758C14.1973 27.0758 13.9176 26.7961 13.9176 26.4508ZM20.4965 20.3742C20.152 20.3742 19.8723 20.0945 19.8723 19.75C19.8723 19.4047 20.152 19.125 20.4965 19.125H24.523C24.8676 19.125 25.1473 19.4047 25.1473 19.75C25.1473 20.0945 24.8676 20.3742 24.523 20.3742H23.1348V26.4508C23.1348 26.7961 22.8551 27.0758 22.5098 27.0758C22.1652 27.0758 21.8856 26.7961 21.8856 26.4508V20.3742H20.4965ZM37.4668 34.4609C37.4668 36.8266 35.5426 38.7508 33.1777 38.7508H13.3855C11.0207 38.7508 9.09649 36.8266 9.09649 34.4609V29.6977H29.6738C30.6129 29.6977 31.377 28.9336 31.377 27.9945V18.2039C31.377 17.2648 30.6129 16.5008 29.6738 16.5008H9.09649V5.53906C9.09649 3.17344 11.0207 1.24922 13.3855 1.24922H25.8824V10.9602C25.8824 11.9945 26.723 12.8359 27.7559 12.8359H37.4668V34.4609ZM10.1504 23.2352H8.76211V20.3742H10.1504C10.916 20.3742 11.5387 20.9969 11.5387 21.7625V21.8469C11.5387 22.6125 10.916 23.2352 10.1504 23.2352ZM16.5551 23.2352H15.166V20.3742H16.5551C17.3207 20.3742 17.9434 20.9969 17.9434 21.7625V21.8469C17.9434 22.6125 17.3207 23.2352 16.5551 23.2352Z" fill="#CE7848"/>
</svg>
