<svg width="24" height="24" viewBox="0 0 24 24" fill="none" xmlns="http://www.w3.org/2000/svg">
<rect width="24" height="24" rx="8" fill="#EEF0F4"/>
<path d="M11.9996 18.3996C15.5342 18.3996 18.3996 15.5342 18.3996 11.9996C18.3996 8.46499 15.5342 5.59961 11.9996 5.59961C8.46499 5.59961 5.59961 8.46499 5.59961 11.9996C5.59961 15.5342 8.46499 18.3996 11.9996 18.3996Z" fill="#4D48CE"/>
<path d="M11.9996 9.15517V11.9996M11.9996 14.8441H12.0067M18.3996 11.9996C18.3996 15.5342 15.5342 18.3996 11.9996 18.3996C8.46499 18.3996 5.59961 15.5342 5.59961 11.9996C5.59961 8.46499 8.46499 5.59961 11.9996 5.59961C15.5342 5.59961 18.3996 8.46499 18.3996 11.9996Z" stroke="#4D48CE" stroke-width="2" stroke-linecap="round" stroke-linejoin="round"/>
<path d="M12 9.15527V11.9997M12 14.8442H12.0071" stroke="white" stroke-width="2" stroke-linecap="round" stroke-linejoin="round"/>
</svg>
