<svg width="24" height="24" viewBox="0 0 24 24" fill="none" xmlns="http://www.w3.org/2000/svg">
<rect width="24" height="24" rx="8" fill="#EEF0F4"/>
<path d="M5.7002 18.3002L6.60949 15.233C5.82361 13.9261 5.53932 12.3784 5.80946 10.8778C6.07961 9.37712 6.88582 8.02557 8.07818 7.07442C9.27055 6.12327 10.7679 5.63726 12.2919 5.70674C13.8159 5.77621 15.2628 6.39646 16.3636 7.45215C17.4644 8.50784 18.1441 9.92714 18.2765 11.4461C18.4088 12.9652 17.9847 14.4805 17.083 15.7105C16.1814 16.9404 14.8635 17.8013 13.3745 18.133C11.8854 18.4646 10.3265 18.2446 8.98764 17.5137L5.7002 18.3002Z" fill="#4D48CE" stroke="#4D48CE" stroke-width="1.5" stroke-linecap="round" stroke-linejoin="round"/>
<circle cx="9" cy="12" r="1" fill="white"/>
<circle cx="15" cy="12" r="1" fill="white"/>
<circle cx="12" cy="12" r="1" fill="white"/>
</svg>
