<svg width="24" height="24" viewBox="0 0 24 24" fill="none" xmlns="http://www.w3.org/2000/svg">
<rect width="24" height="24" rx="8" fill="#EEF0F4"/>
<path d="M13.7143 4V7.55556C13.7143 7.7913 13.8046 8.0174 13.9653 8.18409C14.1261 8.35079 14.3441 8.44444 14.5714 8.44444H18" fill="#4D48CE"/>
<path d="M16.2857 20H7.71429C7.25963 20 6.82359 19.8127 6.5021 19.4793C6.18061 19.1459 6 18.6937 6 18.2222V5.77778C6 5.30628 6.18061 4.8541 6.5021 4.5207C6.82359 4.1873 7.25963 4 7.71429 4H13.7143L18 8.44444V18.2222C18 18.6937 17.8194 19.1459 17.4979 19.4793C17.1764 19.8127 16.7404 20 16.2857 20Z" fill="#4D48CE"/>
<path d="M13.7143 4V7.55556C13.7143 7.7913 13.8046 8.0174 13.9653 8.18409C14.1261 8.35079 14.3441 8.44444 14.5714 8.44444H18" fill="#4D48CE"/>
<path d="M13.7143 4V7.55556C13.7143 7.7913 13.8046 8.0174 13.9653 8.18409C14.1261 8.35079 14.3441 8.44444 14.5714 8.44444H18M13.7143 4H7.71429C7.25963 4 6.82359 4.1873 6.5021 4.5207C6.18061 4.8541 6 5.30628 6 5.77778V18.2222C6 18.6937 6.18061 19.1459 6.5021 19.4793C6.82359 19.8127 7.25963 20 7.71429 20H16.2857C16.7404 20 17.1764 19.8127 17.4979 19.4793C17.8194 19.1459 18 18.6937 18 18.2222V8.44444M13.7143 4L18 8.44444M9.42857 9.33333H10.2857M9.42857 12.8889H14.5714M9.42857 16.4444H14.5714" stroke="#4D48CE" stroke-width="2" stroke-linecap="round" stroke-linejoin="round"/>
<path d="M13.7148 4V7.55556C13.7148 7.7913 13.8051 8.0174 13.9659 8.18409C14.1266 8.35079 14.3447 8.44444 14.572 8.44444H18.0006" fill="#B2B2F7"/>
<path d="M13.7148 4V7.55556C13.7148 7.7913 13.8051 8.0174 13.9659 8.18409C14.1266 8.35079 14.3447 8.44444 14.572 8.44444H18.0006L13.7148 4Z" stroke="#B2B2F7" stroke-width="2" stroke-linecap="round" stroke-linejoin="round"/>
<path d="M9.42871 9.33398H10.2859M9.42871 12.8895H14.5716M9.42871 16.4451H14.5716" stroke="white" stroke-width="2" stroke-linecap="round" stroke-linejoin="round"/>
</svg>
