<svg width="24" height="24" viewBox="0 0 24 24" fill="none" xmlns="http://www.w3.org/2000/svg">
<rect width="24" height="24" rx="8" fill="white"/>
<path d="M12 20C16.4183 20 20 16.4183 20 12C20 7.58172 16.4183 4 12 4C7.58172 4 4 7.58172 4 12C4 16.4183 7.58172 20 12 20Z" fill="#4D48CE" stroke="#4D48CE" stroke-width="1.5" stroke-linecap="round" stroke-linejoin="round"/>
<path d="M11.1996 11.9314H13.2682C13.6926 11.9314 14.0996 11.7629 14.3996 11.4628C14.6997 11.1628 14.8682 10.7558 14.8682 10.3314C14.8682 9.9071 14.6997 9.50013 14.3996 9.20007C14.0996 8.90002 13.6926 8.73145 13.2682 8.73145H11.1996V11.9314ZM11.1996 11.9314V14.0001M11.1996 15.6001V14.0001M11.1996 14.0001H12.7996M11.1996 14.0001H9.59961" stroke="white" stroke-width="1.5" stroke-linecap="round" stroke-linejoin="round"/>
</svg>
