<svg width="32" height="32" viewBox="0 0 32 32" fill="none" xmlns="http://www.w3.org/2000/svg">
<path fill-rule="evenodd" clip-rule="evenodd" d="M8.19429 0H18.897L27.9668 9.45343V27.8389C27.9668 30.131 26.0977 32 23.8057 32H8.19429C5.89242 32 4.0332 30.131 4.0332 27.8389V4.16109C4.0332 1.85922 5.89242 0 8.19429 0Z" fill="#FFB11F"/>
<path opacity="0.302" fill-rule="evenodd" clip-rule="evenodd" d="M18.8877 0V9.37475H27.9673L18.8877 0Z" fill="white"/>
<path d="M12.8476 16.6237V14.4399C12.8476 14.2038 12.6607 14.0169 12.4246 14.0169H11.2442C11.0081 14.0169 10.8212 14.2038 10.8212 14.4399V16.6237L10.1621 18.5518C9.97518 19.0928 10.0637 19.6929 10.3982 20.1552C10.7228 20.6176 11.2638 20.893 11.8344 20.893C12.405 20.893 12.9362 20.6176 13.2706 20.1552C13.6051 19.6929 13.6936 19.0928 13.5067 18.5518L12.8476 16.6237ZM12.5722 19.6535C12.2378 20.1355 11.4311 20.1355 11.0868 19.6535C10.9196 19.4174 10.8704 19.1026 10.9688 18.8272L11.1852 18.1779H12.4738L12.7001 18.8272C12.7886 19.1026 12.7493 19.4174 12.5722 19.6535ZM9.21777 2.29107V3.49122C9.21777 3.7273 9.40469 3.91421 9.64077 3.91421H11.2442V5.70458H9.64077C9.40469 5.70458 9.21777 5.8915 9.21777 6.12758V7.05226C9.21777 7.28834 9.40469 7.48508 9.64077 7.48508H11.2442V9.26558H9.64077C9.40469 9.26558 9.21777 9.4525 9.21777 9.68858V10.6231C9.21777 10.8592 9.40469 11.0461 9.64077 11.0461H11.2442V12.4036C11.2442 12.6397 11.441 12.8266 11.677 12.8266H14.0281C14.2544 12.8266 14.4511 12.6397 14.4511 12.4036V11.4691C14.4511 11.2428 14.2544 11.0461 14.0281 11.0461H12.4148V9.26558H14.0281C14.2544 9.26558 14.4511 9.07866 14.4511 8.84258V7.90808C14.4511 7.672 14.2544 7.48508 14.0281 7.48508H12.4148V5.70458H14.0281C14.2544 5.70458 14.4511 5.50784 14.4511 5.27176V4.34708C14.4511 4.111 14.2544 3.91425 14.0281 3.91425H12.4148V2.28125L9.21777 2.29107Z" fill="white"/>
</svg>
